<svg width="20" height="20" viewBox="0 0 24 24" fill="none" xmlns="http://www.w3.org/2000/svg">
<path d="M22 16.92V18C22 18.5304 21.7893 19.0391 21.4142 19.4142C21.0391 19.7893 20.5304 20 20 20H4C3.46957 20 2.96086 19.7893 2.58579 19.4142C2.21071 19.0391 2 18.5304 2 18V6C2 5.46957 2.21071 4.96086 2.58579 4.58579C2.96086 4.21071 3.46957 4 4 4H20C20.5304 4 21.0391 4.21071 21.4142 4.58579C21.7893 4.96086 22 5.46957 22 6V7.08M15 12C15 13.6569 13.6569 15 12 15C10.3431 15 9 13.6569 9 12C9 10.3431 10.3431 9 12 9C13.6569 9 15 10.3431 15 12Z" stroke="#6B7280" stroke-width="2" stroke-linecap="round" stroke-linejoin="round"/>
</svg>