<?xml version="1.0" encoding="UTF-8"?>
<svg id="Layer_1" xmlns="http://www.w3.org/2000/svg" version="1.1" viewBox="0 0 24 24">
  <!-- Generator: Adobe Illustrator 29.7.1, SVG Export Plug-In . SVG Version: 2.1.1 Build 8)  -->
  <defs>
    <style>
      .st0 {
        fill: #efefef;
        fill-rule: evenodd;
      }
    </style>
  </defs>
  <path class="st0" d="M17,2.9c-.2.1-.3.2-.3.4,0,.1,0,.2.2.5,1.1,2.3,1.7,4.9,1.8,7.5,0,1.7,0,3.3-.5,4.9-.3,1.3-.8,2.7-1.3,3.8-.2.4-.2.4-.2.5,0,.3.2.5.5.5.3,0,.4,0,.6-.5.7-1.6,1.3-3.4,1.6-5.2.2-1.3.3-2.3.3-3.8,0-1,0-1.2-.1-2-.2-2-.7-4-1.5-5.8-.3-.7-.4-.9-.6-1-.1,0-.3,0-.4,0M13,4.7c-.1,0-.2.1-.3.3,0,.2,0,.3.1.8.9,2.1,1.4,4.5,1.3,6.5,0,2-.5,3.8-1.3,5.8-.2.5-.2.6-.2.8,0,.2.3.3.5.3.1,0,.3,0,.4-.2.2-.2.7-1.6.9-2.4.8-2.9.9-5.6.2-8.6-.2-.8-.5-1.8-.9-2.6-.2-.5-.3-.6-.5-.6-.1,0-.2,0-.3,0M8.7,6.8c-.2,0-.3.2-.3.4s0,.2.1.4c.8,1.7,1.1,3.8.8,5.8-.1,1-.4,1.7-.8,2.9-.1.2-.1.4,0,.5,0,.2.2.3.4.3.3,0,.4,0,.6-.5,1-2.2,1.2-4.6.8-7-.2-.9-.5-1.8-.8-2.5-.1-.3-.2-.3-.2-.4-.1,0-.4-.1-.5,0M4.6,8.8c-.2,0-.3.2-.3.4,0,.1,0,.2.1.5.2.6.3,1,.4,1.6,0,.3,0,1,0,1.3,0,.5-.2,1.1-.5,1.7-.1.3,0,.6.1.7.2.1.5.1.7,0,.1-.1.4-.9.5-1.5.1-.5.1-.7.2-1.3,0-.7,0-1.3-.2-2,0-.4-.3-1-.4-1.2-.1-.3-.4-.4-.7-.2"/>
</svg>