<svg width="20" height="20" viewBox="0 0 24 24" fill="none" xmlns="http://www.w3.org/2000/svg">
<path d="M17.94 17.94C16.2306 19.243 14.1491 19.9649 12 20C7.369 20 3.423 15.306 2.036 13.178C2.18699 12.9484 2.35304 12.7284 2.532 12.519M9.879 9.879C10.3516 9.40629 10.9626 9.12043 11.622 9.06732C12.2814 9.01421 12.9369 9.19681 13.4738 9.58092C14.0108 9.96503 14.3963 10.5259 14.5648 11.1675C14.7334 11.8092 14.6758 12.4926 14.402 13.099M9.879 9.879L14.121 14.121M9.879 9.879L3 3M14.121 14.121L21 21M14.121 14.121C13.6493 14.5937 13.0383 14.8796 12.379 14.9327C11.7196 14.9858 11.0641 14.8032 10.5272 14.4191C9.99016 14.035 9.60467 13.4741 9.43613 12.8325C9.26758 12.1908 9.32524 11.5074 9.599 10.901" stroke="#6B7280" stroke-width="2" stroke-linecap="round" stroke-linejoin="round"/>
</svg>