<svg width="20" height="20" viewBox="0 0 24 24" fill="none" xmlns="http://www.w3.org/2000/svg">
<path d="M2.036 12.322C1.68 12.9 1.68 13.1 2.036 13.678C3.423 15.806 7.369 20.5 12.001 20.5C16.632 20.5 20.577 15.806 21.965 13.678C22.32 13.1 22.32 12.9 21.965 12.322C20.577 10.194 16.632 5.5 12.001 5.5C7.369 5.5 3.423 10.194 2.036 12.322Z" stroke="#6B7280" stroke-width="2" stroke-linecap="round" stroke-linejoin="round"/>
<path d="M15 12C15 13.6569 13.6569 15 12 15C10.3431 15 9 13.6569 9 12C9 10.3431 10.3431 9 12 9C13.6569 9 15 10.3431 15 12Z" stroke="#6B7280" stroke-width="2" stroke-linecap="round" stroke-linejoin="round"/>
</svg>