<svg xmlns="http://www.w3.org/2000/svg" fill="#000000" class="bi bi-mic-fill" viewBox="0 0 16 16" id="Mic-Fill--Streamline-Bootstrap" height="16" width="16">
  <desc>
    Mic Fill Streamline Icon: https://streamlinehq.com
  </desc>
  <path d="M5 3a3 3 0 0 1 6 0v5a3 3 0 0 1 -6 0z" stroke-width="1"></path>
  <path d="M3.5 6.5A0.5 0.5 0 0 1 4 7v1a4 4 0 0 0 8 0V7a0.5 0.5 0 0 1 1 0v1a5 5 0 0 1 -4.5 4.975V15h3a0.5 0.5 0 0 1 0 1h-7a0.5 0.5 0 0 1 0 -1h3v-2.025A5 5 0 0 1 3 8V7a0.5 0.5 0 0 1 0.5 -0.5" stroke-width="1"></path>
</svg>