<svg width="20" height="20" viewBox="0 0 24 24" fill="none" xmlns="http://www.w3.org/2000/svg">
<path d="M22 16.92V18C22.0008 18.5134 21.8923 19.0207 21.6818 19.4888C21.4713 19.9569 21.1644 20.3752 20.7814 20.7165C20.3984 21.0578 19.9488 21.3138 19.4595 21.4669C18.9703 21.6201 18.4535 21.6668 17.94 21.604C15.0779 21.2437 12.3297 20.1989 9.94 18.555C7.76339 17.0723 5.94395 15.1043 4.61998 12.795C3.00003 10.3493 1.9743 7.53312 1.61 4.604C1.54737 4.09254 1.59373 3.57776 1.74615 3.08952C1.89857 2.60128 2.15315 2.15268 2.49193 1.77068C2.8307 1.38867 3.24667 1.08257 3.71212 0.871421C4.17757 0.660276 4.68227 0.551385 5.19299 0.551001H6.26199C7.26441 0.541077 8.23592 0.900928 9 1.563C9.76408 2.22507 10.2625 3.14345 10.4 4.143L10.76 6.371C10.8795 7.2641 10.7389 8.17321 10.3557 8.98584C9.97252 9.79847 9.36335 10.4737 8.61 10.923L7.52 11.464C8.89078 13.8113 10.9652 15.8039 13.36 17.104L13.901 16.014C14.3493 15.2616 15.0245 14.6524 15.8372 14.2693C16.6498 13.8861 17.5589 13.7455 18.452 13.865L20.68 14.225C21.684 14.3636 22.6072 14.8658 23.2721 15.6357C23.937 16.4056 24.2959 17.3831 24.28 18.391L22 16.92Z" stroke="#6B7280" stroke-width="2" stroke-linecap="round" stroke-linejoin="round"/>
</svg>